<svg id="menu" xmlns="http://www.w3.org/2000/svg" width="15.524" height="15.524" viewBox="0 0 15.524 15.524">
  <defs>
    <style>
      .cls-1 {
        fill: #737374;
      }
    </style>
  </defs>
  <g id="Group_187" data-name="Group 187" transform="translate(0 0)">
    <g id="Group_186" data-name="Group 186">
      <path id="Path_202" data-name="Path 202" class="cls-1" d="M5.361,0H1.8A1.8,1.8,0,0,0,0,1.8V5.361a1.8,1.8,0,0,0,1.8,1.8H5.361a1.8,1.8,0,0,0,1.8-1.8V1.8A1.8,1.8,0,0,0,5.361,0Zm.582,5.361a.583.583,0,0,1-.582.582H1.8a.583.583,0,0,1-.582-.582V1.8A.583.583,0,0,1,1.8,1.213H5.361a.583.583,0,0,1,.582.582Z"/>
    </g>
  </g>
  <g id="Group_189" data-name="Group 189" transform="translate(8.369 0)">
    <g id="Group_188" data-name="Group 188">
      <path id="Path_203" data-name="Path 203" class="cls-1" d="M281.337,0h-3.517A1.821,1.821,0,0,0,276,1.819V5.337a1.821,1.821,0,0,0,1.819,1.819h3.517a1.821,1.821,0,0,0,1.819-1.819V1.819A1.821,1.821,0,0,0,281.337,0Zm.606,5.337a.607.607,0,0,1-.606.606h-3.517a.607.607,0,0,1-.606-.606V1.819a.607.607,0,0,1,.606-.606h3.517a.607.607,0,0,1,.606.606Z" transform="translate(-276)"/>
    </g>
  </g>
  <g id="Group_191" data-name="Group 191" transform="translate(0 8.369)">
    <g id="Group_190" data-name="Group 190">
      <path id="Path_204" data-name="Path 204" class="cls-1" d="M5.361,276H1.8A1.8,1.8,0,0,0,0,277.8v3.565a1.8,1.8,0,0,0,1.8,1.8H5.361a1.8,1.8,0,0,0,1.8-1.8V277.8A1.8,1.8,0,0,0,5.361,276Zm.582,5.361a.583.583,0,0,1-.582.582H1.8a.583.583,0,0,1-.582-.582V277.8a.583.583,0,0,1,.582-.582H5.361a.583.583,0,0,1,.582.582Z" transform="translate(0 -276)"/>
    </g>
  </g>
  <g id="Group_193" data-name="Group 193" transform="translate(8.369 8.369)">
    <g id="Group_192" data-name="Group 192">
      <path id="Path_205" data-name="Path 205" class="cls-1" d="M281.337,276h-3.517A1.821,1.821,0,0,0,276,277.819v3.517a1.821,1.821,0,0,0,1.819,1.819h3.517a1.821,1.821,0,0,0,1.819-1.819v-3.517A1.821,1.821,0,0,0,281.337,276Zm.606,5.336a.607.607,0,0,1-.606.606h-3.517a.607.607,0,0,1-.606-.606c0-3.852.272-4.124.606-4.124,3.852,0,4.124.272,4.124.606Z" transform="translate(-276 -276)"/>
    </g>
  </g>
</svg>
