<svg id="menu_1_" data-name="menu (1)" xmlns="http://www.w3.org/2000/svg" width="15.524" height="15.524" viewBox="0 0 15.524 15.524">
  <g id="Group_185" data-name="Group 185" transform="translate(0 0)">
    <g id="Group_184" data-name="Group 184">
      <path id="Path_199" data-name="Path 199" d="M1.764,3.528h12A1.764,1.764,0,0,0,13.76,0h-12a1.764,1.764,0,0,0,0,3.528Z" transform="translate(0 0)"/>
      <path id="Path_200" data-name="Path 200" d="M13.76,181.333h-12a1.764,1.764,0,0,0,0,3.528h12a1.764,1.764,0,0,0,0-3.528Z" transform="translate(0 -175.335)"/>
      <path id="Path_201" data-name="Path 201" d="M13.76,362.667h-12a1.764,1.764,0,1,0,0,3.528h12a1.764,1.764,0,1,0,0-3.528Z" transform="translate(0 -350.671)"/>
    </g>
  </g>
</svg>
