<svg xmlns="http://www.w3.org/2000/svg" width="17.638" height="14.064" viewBox="0 0 17.638 14.064">
  <defs>
    <style>
      .cls-1 {
        fill: #b3b3b4;
      }
    </style>
  </defs>
  <path id="cogs" class="cls-1" d="M14.11,5.318l-.226.394a.341.341,0,0,1-.416.149,3.046,3.046,0,0,1-.885-.513.342.342,0,0,1-.077-.433l.226-.394a2.379,2.379,0,0,1-.438-.755h-.455a.34.34,0,0,1-.336-.284,3.105,3.105,0,0,1,0-1.023.343.343,0,0,1,.336-.287h.455a2.379,2.379,0,0,1,.438-.755l-.226-.394a.339.339,0,0,1,.077-.433,3.082,3.082,0,0,1,.885-.513.341.341,0,0,1,.416.149l.226.394a2.449,2.449,0,0,1,.874,0l.226-.394a.341.341,0,0,1,.416-.149,3.046,3.046,0,0,1,.885.513.342.342,0,0,1,.077.433l-.226.394a2.379,2.379,0,0,1,.438.755h.455a.34.34,0,0,1,.336.284,3.105,3.105,0,0,1,0,1.023.343.343,0,0,1-.336.287H16.8a2.379,2.379,0,0,1-.438.755l.226.394a.339.339,0,0,1-.077.433,3.082,3.082,0,0,1-.885.513.341.341,0,0,1-.416-.149l-.226-.394A2.449,2.449,0,0,1,14.11,5.318ZM13.82,3.7a1.03,1.03,0,0,0,1.455-1.455A1.03,1.03,0,0,0,13.82,3.7ZM10.642,7.939l.929.463a.663.663,0,0,1,.289.8,6.506,6.506,0,0,1-1.174,1.814.659.659,0,0,1-.835.146l-.8-.463a4.735,4.735,0,0,1-1.513.874V12.5a.66.66,0,0,1-.543.65,6.2,6.2,0,0,1-2.092,0,.662.662,0,0,1-.551-.65v-.926A4.786,4.786,0,0,1,2.837,10.7l-.8.46a.659.659,0,0,1-.835-.146A6.5,6.5,0,0,1,.037,9.2a.665.665,0,0,1,.289-.8l.918-.463a4.775,4.775,0,0,1,0-1.747L.326,5.726a.657.657,0,0,1-.289-.8A6.471,6.471,0,0,1,1.2,3.113a.659.659,0,0,1,.835-.146l.8.463A4.735,4.735,0,0,1,4.35,2.557V1.628A.656.656,0,0,1,4.89.98a6.286,6.286,0,0,1,2.095,0,.662.662,0,0,1,.551.65v.926a4.786,4.786,0,0,1,1.513.874l.8-.463a.659.659,0,0,1,.835.146,6.462,6.462,0,0,1,1.16,1.814.659.659,0,0,1-.276.8l-.929.463A4.79,4.79,0,0,1,10.642,7.939ZM7.4,8.521A2.061,2.061,0,0,0,4.488,5.608,2.061,2.061,0,0,0,7.4,8.521Zm6.708,5.035-.226.394a.341.341,0,0,1-.416.149,3.046,3.046,0,0,1-.885-.513.342.342,0,0,1-.077-.433l.226-.394A2.379,2.379,0,0,1,12.293,12h-.455a.34.34,0,0,1-.336-.284,3.105,3.105,0,0,1,0-1.023.343.343,0,0,1,.336-.287h.455a2.379,2.379,0,0,1,.438-.755l-.226-.394a.339.339,0,0,1,.077-.433,3.082,3.082,0,0,1,.885-.513.341.341,0,0,1,.416.149l.226.394a2.449,2.449,0,0,1,.874,0l.226-.394a.341.341,0,0,1,.416-.149,3.046,3.046,0,0,1,.885.513.342.342,0,0,1,.077.433l-.226.394a2.379,2.379,0,0,1,.438.755h.455a.34.34,0,0,1,.336.284,3.105,3.105,0,0,1,0,1.023.343.343,0,0,1-.336.287H16.8a2.379,2.379,0,0,1-.438.755l.226.394a.339.339,0,0,1-.077.433,3.082,3.082,0,0,1-.885.513.341.341,0,0,1-.416-.149l-.226-.394A2.449,2.449,0,0,1,14.11,13.556Zm-.289-1.623a1.03,1.03,0,0,0,1.455-1.455,1.03,1.03,0,0,0-1.455,1.455Z" transform="translate(0.005 -0.057)"/>
</svg>
